<svg width="400" height="400" viewBox="0 0 400 400" fill="none" xmlns="http://www.w3.org/2000/svg">
<g clip-path="url(#clip0_21_59)">
<rect width="400" height="400" rx="200" fill="white"/>
<g clip-path="url(#clip1_21_59)">
<path d="M400 0H-2V399H400V0Z" fill="#26938D"/>
<path d="M197.08 370.903V312.272C191.191 312.272 185.173 311.759 179.284 310.861L170.066 368.722C179.028 370.262 188.118 370.903 197.08 370.903ZM223.965 368.85C232.927 367.439 241.761 365.386 250.338 362.564L232.287 306.755C226.654 308.551 220.764 309.963 214.875 310.861L223.965 368.85ZM143.821 362.564L161.873 306.883C156.24 305.087 150.734 302.778 145.357 300.084L118.728 352.3C126.794 356.277 135.243 359.741 143.821 362.564ZM275.303 352.3C283.369 348.195 291.05 343.448 298.348 338.188L263.781 290.847C259.044 294.31 253.923 297.518 248.546 300.084L275.303 352.3ZM95.6835 338.059L130.25 290.718C125.513 287.254 120.905 283.405 116.68 279.172L75.1995 320.611C81.6007 326.898 88.5141 332.799 95.6835 338.059ZM318.704 320.868L319.088 320.483C325.489 314.196 331.378 307.268 336.627 300.084L289.258 265.572C285.801 270.319 281.833 274.938 277.736 279.043L277.096 279.685L297.068 298.544L318.704 320.868ZM57.66 299.956L105.029 265.444C101.573 260.697 98.3721 255.565 95.6835 250.305L43.4491 276.862C47.546 284.945 52.2829 292.643 57.66 299.956ZM350.71 276.991C354.807 269.036 358.264 260.569 361.08 251.973L305.261 234.011C303.469 239.656 301.164 245.173 298.476 250.433L350.71 276.991ZM33.0791 251.973L88.8982 233.883C87.1058 228.238 85.6975 222.465 84.8014 216.563L26.8058 225.672C28.2141 234.525 30.3905 243.377 33.0791 251.973ZM367.354 225.801C368.762 216.948 369.53 207.839 369.53 198.858H310.894C310.894 204.76 310.382 210.79 309.486 216.692L367.354 225.801ZM83.3931 198.73C83.3931 192.829 83.9052 186.799 84.8014 180.897L26.8058 171.788C25.3975 180.64 24.7574 189.749 24.6294 198.73H83.3931ZM309.486 181.025L367.482 171.916C366.073 163.064 364.025 154.211 361.208 145.616L305.389 163.577C307.182 169.35 308.59 175.124 309.486 181.025ZM88.8982 163.577C90.6905 157.932 92.995 152.415 95.6835 147.155L43.4491 120.598C39.3523 128.552 35.8956 137.02 33.0791 145.616L88.8982 163.577ZM298.604 147.283L350.966 120.726C346.87 112.644 342.133 104.946 336.755 97.633L289.258 132.145C292.715 136.892 295.915 142.023 298.604 147.283ZM105.029 132.016C108.486 127.269 112.455 122.651 116.68 118.417L116.808 118.289L75.3275 76.8491L75.1995 76.9774C68.7982 83.3922 62.909 90.1919 57.66 97.5047L105.029 132.016ZM277.736 118.674L290.282 105.972L319.088 77.234L318.96 77.1057C312.559 70.8192 305.773 64.9176 298.604 59.6574L264.037 106.999C268.774 110.463 273.383 114.311 277.48 118.545L277.736 118.674ZM130.378 106.742C135.115 103.278 140.236 100.199 145.613 97.5047L118.984 45.2883C110.919 49.3938 103.237 54.1407 95.9396 59.4009L130.378 106.742ZM248.93 97.633L275.687 45.4166C267.622 41.3111 259.3 37.8472 250.722 35.0247L232.543 90.705C238.048 92.6295 243.553 94.9388 248.93 97.633ZM162.129 90.705C167.762 88.9089 173.651 87.4976 179.54 86.5996L170.45 28.7382C161.617 30.1494 152.655 32.2021 144.077 35.0247L162.129 90.705ZM215.003 86.5996L224.221 28.7382C215.387 27.3269 206.298 26.5571 197.336 26.5571V85.1883C203.225 85.1883 209.242 85.7015 215.003 86.5996Z" fill="white"/>
<path d="M197.08 314.966V256.079C192.087 256.079 187.222 255.437 182.357 254.154L166.994 310.989C176.852 313.555 186.966 314.966 197.08 314.966ZM227.166 310.989C237.024 308.423 246.37 304.574 255.203 299.442L225.501 248.509C221.277 250.947 216.668 252.871 211.931 254.154L227.166 310.989ZM139.084 299.442L168.786 248.509C164.561 246.071 160.592 242.992 157.008 239.528L156.496 239.015L137.804 258.644L114.759 280.84L115.143 281.224C122.313 288.281 130.378 294.439 139.084 299.442ZM279.144 281.224C286.313 274.04 292.587 266.086 297.58 257.361L246.241 227.853C243.809 232.087 240.736 235.936 237.152 239.528L279.144 281.224ZM96.5797 257.233L147.918 227.853C145.485 223.62 143.565 219.129 142.285 214.382L85.0574 229.521C87.6179 239.143 91.5867 248.509 96.5797 257.233ZM309.23 229.65C311.791 219.899 313.199 209.892 313.199 199.885H253.923C253.923 204.76 253.283 209.764 252.003 214.511L309.23 229.65ZM140.492 199.757C140.492 194.881 141.133 189.878 142.413 185.131L85.0574 169.992C82.4969 179.743 81.0886 189.75 81.0886 199.757H140.492ZM251.875 185.259L309.23 170.12C306.67 160.37 302.701 151.004 297.708 142.28L246.37 171.66C248.674 176.022 250.594 180.512 251.875 185.259ZM148.046 171.66C150.478 167.554 153.423 163.577 157.008 160.113L157.136 159.985L135.884 138.944L115.527 118.032L115.143 118.417C107.974 125.473 101.829 133.556 96.7077 142.152L148.046 171.66ZM237.152 160.113L258.148 139.201L279.656 118.93L279.144 118.417C271.975 111.233 263.909 105.203 255.203 100.071L225.501 151.004C229.726 153.442 233.567 156.393 237.152 159.857V160.113ZM168.786 151.004C173.011 148.567 177.62 146.642 182.357 145.359L167.25 88.5242C157.392 91.0901 148.046 94.939 139.212 100.071L168.786 151.004ZM211.803 145.488L227.166 88.6525C217.436 86.0865 207.322 84.6753 197.208 84.6753V143.563C202.073 143.563 207.066 144.205 211.803 145.488Z" fill="white"/>
</g>
</g>
<defs>
<clipPath id="clip0_21_59">
<rect width="400" height="400" rx="200" fill="white"/>
</clipPath>
<clipPath id="clip1_21_59">
<rect width="402" height="399" fill="white" transform="translate(-2)"/>
</clipPath>
</defs>
</svg>
